# xmcd
#
# Track frame offsets: 
#        150
#        1727
#        14996
#        39299
#        60266
#        82733
#        109341
#        152178
#        172865
#        204634
#        231619
#        268007
#
# Disc length: 3951 seconds
#
# Revision: 0
# Processed by: cddbd v1.5.2PL0 Copyright (c) Steve Scherf et al.
# Submitted via: ExactAudioCopyFreeDBPlugin 1.0
#
DISCID=930f6d0c
DTITLE=Stevie Ray Vaughan - The Broadcast Collection 1983-'89 cd6
DYEAR=2017
DGENRE=Bluesrock
TTITLE0=Announcer
TTITLE1=Scuttle Buttin'
TTITLE2=Say What
TTITLE3=Lookin' Out The Window
TTITLE4=Look At Little Sister
TTITLE5=Mary Had A Little Lamb
TTITLE6=Ain't Gonne Give Up On Love
TTITLE7=Superstition
TTITLE8=Willie The Wimp
TTITLE9=Cold Shot
TTITLE10=Couldn't Stand The Weather
TTITLE11=Life Without You (Fade Out And Cut)
EXTD=
EXTT0=
EXTT1=
EXTT2=
EXTT3=
EXTT4=
EXTT5=
EXTT6=
EXTT7=
EXTT8=
EXTT9=
EXTT10=
EXTT11=
PLAYORDER=
